<svg width="50" height="50" viewBox="0 0 50 50" fill="none" xmlns="http://www.w3.org/2000/svg">
<g clip-path="url(#clip0_219_14)">
<path d="M49.0542 22.7709L27.2229 0.941699C25.9646 -0.314551 23.9271 -0.314551 22.6646 0.941699L18.1417 5.47295L23.8917 11.2229C25.2354 10.775 26.7646 11.0771 27.8271 12.1417C28.9021 13.2146 29.1979 14.7625 28.7396 16.1L34.2771 21.6417C35.6208 21.1771 37.1667 21.4792 38.2354 22.548C39.7375 24.048 39.7375 26.473 38.2354 27.973C36.7375 29.4709 34.3167 29.4709 32.8188 27.973C31.6958 26.8459 31.4146 25.1875 31.9771 23.8146L26.7917 18.6563V32.25C27.1583 32.4292 27.5042 32.673 27.8083 32.975C29.2938 34.4771 29.2938 36.898 27.8083 38.3917C26.3104 39.8938 23.8729 39.8938 22.3729 38.3917C20.875 36.8938 20.875 34.4771 22.3729 32.9792C22.7521 32.6042 23.1792 32.3209 23.6333 32.1334V18.4063C23.1813 18.2167 22.75 17.9438 22.3833 17.5709C21.2479 16.4355 20.975 14.775 21.5583 13.3855L15.9083 7.70837L0.9375 22.6688C-0.3125 23.9292 -0.3125 25.9688 0.9375 27.2292L22.7708 49.0563C24.0292 50.3146 26.0667 50.3146 27.325 49.0563L49.0542 27.3271C50.3146 26.0709 50.3146 24.0313 49.0542 22.7709Z" fill="black"/>
</g>
<defs>
<clipPath id="clip0_219_14">
<rect width="50" height="50" fill="white"/>
</clipPath>
</defs>
</svg>
