<svg width="50" height="50" viewBox="0 0 50 50" fill="none" xmlns="http://www.w3.org/2000/svg">
<g clip-path="url(#clip0_219_6)">
<path d="M24.9958 50C24.3271 50 23.6604 49.825 23.075 49.4854L16.9583 45.8667C16.0458 45.3563 16.4917 45.175 16.7917 45.0688C18.0104 44.6459 18.2562 44.5479 19.5583 43.8104C19.6937 43.7334 19.8729 43.7625 20.0125 43.8459L24.7125 46.6354C24.8833 46.7292 25.1229 46.7292 25.2792 46.6354L43.6021 36.0604C43.7729 35.9625 43.8812 35.7667 43.8812 35.5646V14.4188C43.8812 14.2125 43.7708 14.0188 43.5958 13.9146L25.2812 3.34795C25.1125 3.25003 24.8875 3.25003 24.7167 3.34795L6.40625 13.9167C6.22916 14.0188 6.11666 14.2188 6.11666 14.4188V35.5646C6.11666 35.7667 6.22916 35.9584 6.40625 36.0542L11.425 38.9542C14.1479 40.3167 15.8167 38.7125 15.8167 37.1V16.2229C15.8167 15.9271 16.0542 15.6959 16.35 15.6959H18.6729C18.9625 15.6959 19.2042 15.9292 19.2042 16.2229V37.1C19.2042 40.7354 17.225 42.8188 13.7792 42.8188C12.7208 42.8188 11.8854 42.8188 9.55833 41.6709L4.75 38.9063C3.5625 38.2209 2.82916 36.9375 2.82916 35.5646V14.4188C2.82916 13.0459 3.56458 11.7625 4.75 11.0792L23.0729 0.491699C24.2333 -0.164551 25.7729 -0.164551 26.9229 0.491699L45.2437 11.0792C46.4312 11.7646 47.1687 13.0459 47.1687 14.4188V35.5646C47.1687 36.9375 46.4312 38.2167 45.2437 38.9063L26.9229 49.4854C26.3396 49.825 25.675 50 24.9958 50ZM39.7896 29.1521C39.7896 25.1938 37.1146 24.1396 31.4833 23.3959C25.7937 22.6438 25.2146 22.2542 25.2146 20.9229C25.2146 19.8229 25.7042 18.3542 29.9187 18.3542C33.6833 18.3542 35.0708 19.1646 35.6417 21.7021C35.6917 21.9417 35.9104 22.1167 36.1562 22.1167H38.5333C38.6812 22.1167 38.8208 22.0521 38.9208 21.9479C39.0208 21.8354 39.075 21.6917 39.0604 21.5396C38.6917 17.1688 35.7875 15.1313 29.9187 15.1313C24.6937 15.1313 21.5771 17.3354 21.5771 21.0334C21.5771 25.0438 24.6771 26.1521 29.6917 26.6479C35.6917 27.2354 36.1562 28.1125 36.1562 29.2917C36.1562 31.3396 34.5125 32.2125 30.6521 32.2125C25.8042 32.2125 24.7375 30.9959 24.3792 28.5834C24.3375 28.325 24.1167 28.1354 23.8521 28.1354H21.4833C21.1896 28.1354 20.9542 28.3688 20.9542 28.6625C20.9542 31.75 22.6333 35.4292 30.6521 35.4292C36.4604 35.4313 39.7896 33.1459 39.7896 29.1521Z" fill="black"/>
</g>
<defs>
<clipPath id="clip0_219_6">
<rect width="50" height="50" fill="white"/>
</clipPath>
</defs>
</svg>
