<svg width="50" height="50" viewBox="0 0 50 50" fill="none" xmlns="http://www.w3.org/2000/svg">
<path d="M29.6458 25.0084C29.6458 26.2435 29.1553 27.428 28.2822 28.3016C27.409 29.1751 26.2247 29.6662 24.9896 29.6667C23.7541 29.6667 22.5692 29.1759 21.6956 28.3023C20.822 27.4287 20.3312 26.2438 20.3312 25.0084C20.3312 23.7733 20.8218 22.5887 21.6949 21.7152C22.5681 20.8416 23.7524 20.3506 24.9875 20.35C26.223 20.35 27.4078 20.8408 28.2814 21.7144C29.155 22.588 29.6458 23.7729 29.6458 25.0084ZM35.1625 2.73755C32.3583 2.73755 28.6896 4.73755 24.9792 8.20005C21.2708 4.7563 17.6 2.77922 14.7979 2.77922C13.9437 2.77922 13.1667 2.97297 12.4937 3.35838C9.62917 5.01047 8.9875 10.1584 10.4667 16.6188C4.125 18.5771 0 21.7084 0 25.0084C0 28.3209 4.14583 31.4605 10.5063 33.4042C9.03958 39.8896 9.69375 45.0459 12.5646 46.6959C13.2312 47.0855 14.0021 47.2688 14.8604 47.2688C17.6625 47.2688 21.3333 45.2688 25.0437 41.8021C28.7521 45.248 32.4229 47.225 35.225 47.225C36.0792 47.225 36.8562 47.0375 37.5292 46.6521C40.3917 45.0021 41.0354 39.8542 39.5562 33.3917C45.875 31.45 50 28.3125 50 25.0084C50 21.6959 45.8542 18.5563 39.4938 16.6084C40.9604 10.1292 40.3062 4.9688 37.4354 3.31672C36.7729 2.93338 36.0042 2.73963 35.1625 2.73755ZM35.1521 5.00838V5.02088C35.6208 5.02088 35.9979 5.11255 36.3146 5.28547C37.7021 6.0813 38.3042 9.10838 37.8354 13.0021C37.7229 13.9605 37.5396 14.9709 37.3146 16.0021C35.3146 15.5105 33.1354 15.1334 30.8417 14.8896C29.4667 13.0042 28.0396 11.2917 26.6021 9.79171C29.9187 6.70838 33.0333 5.01672 35.1542 5.01047L35.1521 5.00838ZM14.7979 5.05005C16.9062 5.05005 20.0354 6.73338 23.3604 9.80005C21.9312 11.3 20.5062 13.0021 19.1521 14.8875C16.8458 15.1313 14.6646 15.5084 12.6667 16.0084C12.4333 14.9875 12.2604 14 12.1375 13.05C11.6583 9.15838 12.25 6.13338 13.625 5.32713C14.0208 5.13963 14.4583 5.06047 14.7979 5.05005ZM24.9687 11.4042C25.9167 12.3792 26.8646 13.4709 27.8021 14.6625C26.8854 14.6209 25.9479 14.5917 25 14.5917C24.0417 14.5917 23.0937 14.6125 22.1667 14.6625C23.0833 13.4709 24.0312 12.3813 24.9687 11.4042ZM25 16.875C26.5417 16.875 28.0771 16.9459 29.5875 17.0688C30.4333 18.2813 31.2583 19.575 32.0521 20.9438C32.8271 22.2771 33.5312 23.6313 34.1729 24.998C33.5312 26.3625 32.8271 27.7271 32.0625 29.0605C31.2708 30.4355 30.4521 31.7438 29.6042 32.9563C28.0875 33.0875 26.55 33.1605 25 33.1605C23.4583 33.1605 21.9229 33.0875 20.4125 32.9667C19.5667 31.7542 18.7417 30.4584 17.9479 29.0917C17.1729 27.7584 16.4687 26.4042 15.8271 25.0375C16.4583 23.6688 17.1729 22.3021 17.9375 20.9667C18.7292 19.5917 19.5479 18.2875 20.3958 17.075C21.9125 16.9417 23.45 16.8709 25 16.8709V16.875ZM17.4271 17.4042C16.9271 18.1896 16.4271 18.9938 15.9604 19.8209C15.4917 20.6334 15.0542 21.45 14.6375 22.2667C14.0854 20.9 13.6167 19.5375 13.2292 18.2105C14.5625 17.898 15.9687 17.6188 17.4271 17.4042ZM32.5521 17.4042C34 17.6188 35.3958 17.8834 36.7312 18.2105C36.3562 19.5271 35.8875 20.8813 35.3563 22.2375C34.9396 21.425 34.5021 20.6063 34.0229 19.7917C33.5542 18.975 33.0542 18.1792 32.5542 17.4042H32.5521ZM38.9333 18.8105C39.9417 19.123 40.9 19.4709 41.7979 19.848C45.4062 21.3896 47.7396 23.4063 47.7396 25.0063C47.7292 26.6063 45.3958 28.6313 41.7875 30.1625C40.9125 30.5375 39.9542 30.875 38.9646 31.1896C38.3812 29.1938 37.6187 27.1146 36.6729 24.9813C37.6104 22.8625 38.3604 20.7938 38.9333 18.8063V18.8105ZM11.0271 18.8188C11.6063 20.8188 12.3708 22.8959 13.3187 25.0271C12.3812 27.1459 11.6271 29.2146 11.0562 31.2021C10.0479 30.8896 9.08958 30.5396 8.20208 30.1605C4.59375 28.625 2.26042 26.6063 2.26042 25.0063C2.26042 23.4063 4.59375 21.3771 8.20208 19.848C9.07708 19.473 10.0354 19.1355 11.0271 18.8188ZM35.3563 27.7355C35.9083 29.1042 36.3771 30.4688 36.7646 31.7938C35.4312 32.1209 34.0229 32.398 32.5646 32.6063C33.0646 31.825 33.5646 31.0188 34.0333 30.1938C34.5021 29.3813 34.9375 28.5521 35.3563 27.7355ZM14.6375 27.7771C15.0542 28.5938 15.4917 29.4084 15.9708 30.225C16.45 31.0375 16.9396 31.8334 17.4396 32.6063C15.9917 32.3938 14.5958 32.1271 13.2604 31.8021C13.6354 30.4896 14.1062 29.1313 14.6354 27.775L14.6375 27.7771ZM37.3333 34C37.5667 35.0271 37.75 36.0167 37.8625 36.9646C38.3417 40.8563 37.75 43.8813 36.375 44.6896C36.0687 44.8771 35.6708 44.9563 35.2021 44.9563C33.0937 44.9563 29.9646 43.275 26.6396 40.2063C28.0687 38.7063 29.4937 37.0063 30.8479 35.123C33.1542 34.8771 35.3354 34.5 37.3333 34ZM12.6875 34.0209C14.6875 34.5084 16.8667 34.8855 19.1604 35.1292C20.5354 37.0146 21.9625 38.7271 23.4 40.2251C20.0771 43.3146 16.9583 45.0063 14.8375 45.0063C14.3792 44.9959 13.9917 44.9021 13.6854 44.7313C12.2979 43.9396 11.6958 40.9105 12.1646 37.0167C12.2771 36.0584 12.4625 35.05 12.6875 34.0209ZM22.1875 35.3542C23.1042 35.3959 24.0417 35.425 24.9896 35.425C25.9479 35.425 26.8958 35.4042 27.8229 35.3542C26.9062 36.5459 25.9583 37.6355 25.0208 38.6146C24.0729 37.6355 23.125 36.5459 22.1875 35.3542Z" fill="white"/>
</svg>
